<mxfile host="65bd71144e">
    <diagram id="0QZSOZDuyxiuX0igJGMw" name="Page-1">
        <mxGraphModel dx="761" dy="917" grid="1" gridSize="10" guides="1" tooltips="1" connect="1" arrows="1" fold="1" page="1" pageScale="1" pageWidth="850" pageHeight="1100" math="0" shadow="0">
            <root>
                <mxCell id="0"/>
                <mxCell id="1" parent="0"/>
                <mxCell id="2" value="" style="rounded=0;whiteSpace=wrap;html=1;" parent="1" vertex="1">
                    <mxGeometry x="80" y="80" width="680" height="60" as="geometry"/>
                </mxCell>
                <mxCell id="3" value="Login" style="rounded=1;whiteSpace=wrap;html=1;" parent="1" vertex="1">
                    <mxGeometry x="680" y="90" width="60" height="40" as="geometry"/>
                </mxCell>
                <mxCell id="4" value="Signup" style="rounded=1;whiteSpace=wrap;html=1;" parent="1" vertex="1">
                    <mxGeometry x="610" y="90" width="60" height="40" as="geometry"/>
                </mxCell>
                <mxCell id="5" value="My Characters" style="rounded=1;whiteSpace=wrap;html=1;" parent="1" vertex="1">
                    <mxGeometry x="440" y="90" width="90" height="40" as="geometry"/>
                </mxCell>
                <mxCell id="6" value="Create New Character" style="rounded=1;whiteSpace=wrap;html=1;" parent="1" vertex="1">
                    <mxGeometry x="340" y="90" width="90" height="40" as="geometry"/>
                </mxCell>
                <mxCell id="7" value="Logout" style="rounded=1;whiteSpace=wrap;html=1;" parent="1" vertex="1">
                    <mxGeometry x="540" y="90" width="60" height="40" as="geometry"/>
                </mxCell>
                <mxCell id="8" value="user&lt;br&gt;icon" style="ellipse;whiteSpace=wrap;html=1;aspect=fixed;" parent="1" vertex="1">
                    <mxGeometry x="90" y="85" width="50" height="50" as="geometry"/>
                </mxCell>
                <mxCell id="9" value="" style="rounded=0;whiteSpace=wrap;html=1;" parent="1" vertex="1">
                    <mxGeometry x="80" y="220" width="680" height="80" as="geometry"/>
                </mxCell>
                <mxCell id="12" value="Search Bar" style="rounded=1;whiteSpace=wrap;html=1;" parent="1" vertex="1">
                    <mxGeometry x="80" y="150" width="280" height="60" as="geometry"/>
                </mxCell>
                <mxCell id="13" value="Character Image" style="rounded=0;whiteSpace=wrap;html=1;" parent="1" vertex="1">
                    <mxGeometry x="80" y="220" width="140" height="80" as="geometry"/>
                </mxCell>
                <mxCell id="15" value="Character Race" style="rounded=0;whiteSpace=wrap;html=1;" parent="1" vertex="1">
                    <mxGeometry x="370" y="220" width="110" height="80" as="geometry"/>
                </mxCell>
                <mxCell id="16" value="Character Alignment" style="rounded=0;whiteSpace=wrap;html=1;" parent="1" vertex="1">
                    <mxGeometry x="510" y="220" width="110" height="80" as="geometry"/>
                </mxCell>
                <mxCell id="18" value="" style="rounded=0;whiteSpace=wrap;html=1;" parent="1" vertex="1">
                    <mxGeometry x="80" y="310" width="680" height="80" as="geometry"/>
                </mxCell>
                <mxCell id="19" value="Character Image" style="rounded=0;whiteSpace=wrap;html=1;" parent="1" vertex="1">
                    <mxGeometry x="80" y="310" width="140" height="80" as="geometry"/>
                </mxCell>
                <mxCell id="21" value="Character Race" style="rounded=0;whiteSpace=wrap;html=1;" parent="1" vertex="1">
                    <mxGeometry x="370" y="310" width="110" height="80" as="geometry"/>
                </mxCell>
                <mxCell id="22" value="Character Alignment" style="rounded=0;whiteSpace=wrap;html=1;" parent="1" vertex="1">
                    <mxGeometry x="510" y="310" width="110" height="80" as="geometry"/>
                </mxCell>
                <mxCell id="23" value="" style="rounded=0;whiteSpace=wrap;html=1;" parent="1" vertex="1">
                    <mxGeometry x="80" y="400" width="680" height="80" as="geometry"/>
                </mxCell>
                <mxCell id="24" value="Character Image" style="rounded=0;whiteSpace=wrap;html=1;" parent="1" vertex="1">
                    <mxGeometry x="80" y="400" width="140" height="80" as="geometry"/>
                </mxCell>
                <mxCell id="25" value="Character Class/&lt;br&gt;Subclass/&lt;br&gt;level" style="rounded=0;whiteSpace=wrap;html=1;" parent="1" vertex="1">
                    <mxGeometry x="370" y="400" width="110" height="80" as="geometry"/>
                </mxCell>
                <mxCell id="26" value="Character Race" style="rounded=0;whiteSpace=wrap;html=1;" parent="1" vertex="1">
                    <mxGeometry x="370" y="400" width="110" height="80" as="geometry"/>
                </mxCell>
                <mxCell id="27" value="Character Alignment" style="rounded=0;whiteSpace=wrap;html=1;" parent="1" vertex="1">
                    <mxGeometry x="510" y="400" width="110" height="80" as="geometry"/>
                </mxCell>
                <mxCell id="28" value="" style="rounded=0;whiteSpace=wrap;html=1;" parent="1" vertex="1">
                    <mxGeometry x="80" y="490" width="680" height="80" as="geometry"/>
                </mxCell>
                <mxCell id="29" value="Character Image" style="rounded=0;whiteSpace=wrap;html=1;" parent="1" vertex="1">
                    <mxGeometry x="80" y="490" width="140" height="80" as="geometry"/>
                </mxCell>
                <mxCell id="31" value="Character Race" style="rounded=0;whiteSpace=wrap;html=1;" parent="1" vertex="1">
                    <mxGeometry x="510" y="490" width="110" height="80" as="geometry"/>
                </mxCell>
                <mxCell id="32" value="Character Alignment" style="rounded=0;whiteSpace=wrap;html=1;" parent="1" vertex="1">
                    <mxGeometry x="650" y="490" width="110" height="80" as="geometry"/>
                </mxCell>
                <mxCell id="35" value="Character Race" style="rounded=0;whiteSpace=wrap;html=1;" parent="1" vertex="1">
                    <mxGeometry x="370" y="220" width="110" height="80" as="geometry"/>
                </mxCell>
                <mxCell id="38" value="Character Race" style="rounded=0;whiteSpace=wrap;html=1;" parent="1" vertex="1">
                    <mxGeometry x="370" y="220" width="110" height="80" as="geometry"/>
                </mxCell>
                <mxCell id="39" value="Character Class/&lt;br&gt;Subclass/&lt;br&gt;level" style="rounded=0;whiteSpace=wrap;html=1;" parent="1" vertex="1">
                    <mxGeometry x="370" y="490" width="110" height="80" as="geometry"/>
                </mxCell>
                <mxCell id="41" value="Character Race" style="rounded=0;whiteSpace=wrap;html=1;" parent="1" vertex="1">
                    <mxGeometry x="370" y="220" width="110" height="80" as="geometry"/>
                </mxCell>
                <mxCell id="44" value="Character Race" style="rounded=0;whiteSpace=wrap;html=1;" parent="1" vertex="1">
                    <mxGeometry x="370" y="220" width="110" height="80" as="geometry"/>
                </mxCell>
                <mxCell id="46" value="Character Race" style="rounded=0;whiteSpace=wrap;html=1;" parent="1" vertex="1">
                    <mxGeometry x="370" y="310" width="110" height="80" as="geometry"/>
                </mxCell>
                <mxCell id="47" value="Character Alignment" style="rounded=0;whiteSpace=wrap;html=1;" parent="1" vertex="1">
                    <mxGeometry x="510" y="220" width="110" height="80" as="geometry"/>
                </mxCell>
                <mxCell id="48" value="Character Alignment" style="rounded=0;whiteSpace=wrap;html=1;" parent="1" vertex="1">
                    <mxGeometry x="650" y="310" width="110" height="80" as="geometry"/>
                </mxCell>
                <mxCell id="49" value="Character Race" style="rounded=0;whiteSpace=wrap;html=1;" parent="1" vertex="1">
                    <mxGeometry x="510" y="400" width="110" height="80" as="geometry"/>
                </mxCell>
                <mxCell id="50" value="Character Alignment" style="rounded=0;whiteSpace=wrap;html=1;" parent="1" vertex="1">
                    <mxGeometry x="650" y="400" width="110" height="80" as="geometry"/>
                </mxCell>
                <mxCell id="65" value="Character Race" style="rounded=0;whiteSpace=wrap;html=1;" parent="1" vertex="1">
                    <mxGeometry x="370" y="220" width="110" height="80" as="geometry"/>
                </mxCell>
                <mxCell id="66" value="Character Alignment" style="rounded=0;whiteSpace=wrap;html=1;" parent="1" vertex="1">
                    <mxGeometry x="510" y="220" width="110" height="80" as="geometry"/>
                </mxCell>
                <mxCell id="67" value="Character Race" style="rounded=0;whiteSpace=wrap;html=1;" parent="1" vertex="1">
                    <mxGeometry x="370" y="310" width="110" height="80" as="geometry"/>
                </mxCell>
                <mxCell id="68" value="Character Class/&lt;br&gt;Subclass/&lt;br&gt;level" style="rounded=0;whiteSpace=wrap;html=1;" parent="1" vertex="1">
                    <mxGeometry x="370" y="220" width="110" height="80" as="geometry"/>
                </mxCell>
                <mxCell id="69" value="Character Class/&lt;br&gt;Subclass/&lt;br&gt;level" style="rounded=0;whiteSpace=wrap;html=1;" parent="1" vertex="1">
                    <mxGeometry x="370" y="310" width="110" height="80" as="geometry"/>
                </mxCell>
                <mxCell id="70" value="Character Race" style="rounded=0;whiteSpace=wrap;html=1;" parent="1" vertex="1">
                    <mxGeometry x="510" y="220" width="110" height="80" as="geometry"/>
                </mxCell>
                <mxCell id="71" value="Character Alignment" style="rounded=0;whiteSpace=wrap;html=1;" parent="1" vertex="1">
                    <mxGeometry x="650" y="220" width="110" height="80" as="geometry"/>
                </mxCell>
                <mxCell id="72" value="Character Race" style="rounded=0;whiteSpace=wrap;html=1;" parent="1" vertex="1">
                    <mxGeometry x="510" y="310" width="110" height="80" as="geometry"/>
                </mxCell>
                <mxCell id="73" value="Character Name" style="rounded=0;whiteSpace=wrap;html=1;" parent="1" vertex="1">
                    <mxGeometry x="240" y="220" width="110" height="80" as="geometry"/>
                </mxCell>
                <mxCell id="74" value="Character Name" style="rounded=0;whiteSpace=wrap;html=1;" parent="1" vertex="1">
                    <mxGeometry x="240" y="310" width="110" height="80" as="geometry"/>
                </mxCell>
                <mxCell id="75" value="Character Name" style="rounded=0;whiteSpace=wrap;html=1;" parent="1" vertex="1">
                    <mxGeometry x="240" y="400" width="110" height="80" as="geometry"/>
                </mxCell>
                <mxCell id="76" value="Character Name" style="rounded=0;whiteSpace=wrap;html=1;" parent="1" vertex="1">
                    <mxGeometry x="240" y="490" width="110" height="80" as="geometry"/>
                </mxCell>
            </root>
        </mxGraphModel>
    </diagram>
</mxfile>